<svg width="98" height="18" viewBox="0 0 98 18" fill="none" xmlns="http://www.w3.org/2000/svg">
<path d="M28.632 5.6C29.376 5.6 30.02 5.724 30.564 5.972C31.116 6.22 31.54 6.572 31.836 7.028C32.132 7.484 32.28 8.024 32.28 8.648C32.28 9.264 32.132 9.804 31.836 10.268C31.54 10.724 31.116 11.076 30.564 11.324C30.02 11.564 29.376 11.684 28.632 11.684H26.94V14H24.996V5.6H28.632ZM28.524 10.1C29.108 10.1 29.552 9.976 29.856 9.728C30.16 9.472 30.312 9.112 30.312 8.648C30.312 8.176 30.16 7.816 29.856 7.568C29.552 7.312 29.108 7.184 28.524 7.184H26.94V10.1H28.524ZM39.8482 10.796C39.8482 10.82 39.8362 10.988 39.8122 11.3H34.9282C35.0162 11.7 35.2242 12.016 35.5522 12.248C35.8802 12.48 36.2882 12.596 36.7762 12.596C37.1122 12.596 37.4082 12.548 37.6642 12.452C37.9282 12.348 38.1722 12.188 38.3962 11.972L39.3922 13.052C38.7842 13.748 37.8962 14.096 36.7282 14.096C36.0002 14.096 35.3562 13.956 34.7962 13.676C34.2362 13.388 33.8042 12.992 33.5002 12.488C33.1962 11.984 33.0442 11.412 33.0442 10.772C33.0442 10.14 33.1922 9.572 33.4882 9.068C33.7922 8.556 34.2042 8.16 34.7242 7.88C35.2522 7.592 35.8402 7.448 36.4882 7.448C37.1202 7.448 37.6922 7.584 38.2042 7.856C38.7162 8.128 39.1162 8.52 39.4042 9.032C39.7002 9.536 39.8482 10.124 39.8482 10.796ZM36.5002 8.864C36.0762 8.864 35.7202 8.984 35.4322 9.224C35.1442 9.464 34.9682 9.792 34.9042 10.208H38.0842C38.0202 9.8 37.8442 9.476 37.5562 9.236C37.2682 8.988 36.9162 8.864 36.5002 8.864ZM49.3625 7.448C50.1705 7.448 50.8105 7.688 51.2825 8.168C51.7625 8.64 52.0025 9.352 52.0025 10.304V14H50.1305V10.592C50.1305 10.08 50.0225 9.7 49.8065 9.452C49.5985 9.196 49.2985 9.068 48.9065 9.068C48.4665 9.068 48.1185 9.212 47.8625 9.5C47.6065 9.78 47.4785 10.2 47.4785 10.76V14H45.6065V10.592C45.6065 9.576 45.1985 9.068 44.3825 9.068C43.9505 9.068 43.6065 9.212 43.3505 9.5C43.0945 9.78 42.9665 10.2 42.9665 10.76V14H41.0945V7.544H42.8825V8.288C43.1225 8.016 43.4145 7.808 43.7585 7.664C44.1105 7.52 44.4945 7.448 44.9105 7.448C45.3665 7.448 45.7785 7.54 46.1465 7.724C46.5145 7.9 46.8105 8.16 47.0345 8.504C47.2985 8.168 47.6305 7.908 48.0305 7.724C48.4385 7.54 48.8825 7.448 49.3625 7.448ZM57.4964 7.448C58.0964 7.448 58.6404 7.588 59.1284 7.868C59.6244 8.14 60.0124 8.528 60.2924 9.032C60.5724 9.528 60.7124 10.108 60.7124 10.772C60.7124 11.436 60.5724 12.02 60.2924 12.524C60.0124 13.02 59.6244 13.408 59.1284 13.688C58.6404 13.96 58.0964 14.096 57.4964 14.096C56.6084 14.096 55.9324 13.816 55.4684 13.256V14H53.6804V5.096H55.5524V8.228C56.0244 7.708 56.6724 7.448 57.4964 7.448ZM57.1724 12.56C57.6524 12.56 58.0444 12.4 58.3484 12.08C58.6604 11.752 58.8164 11.316 58.8164 10.772C58.8164 10.228 58.6604 9.796 58.3484 9.476C58.0444 9.148 57.6524 8.984 57.1724 8.984C56.6924 8.984 56.2964 9.148 55.9844 9.476C55.6804 9.796 55.5284 10.228 55.5284 10.772C55.5284 11.316 55.6804 11.752 55.9844 12.08C56.2964 12.4 56.6924 12.56 57.1724 12.56ZM64.4641 7.448C65.4641 7.448 66.2321 7.688 66.7681 8.168C67.3041 8.64 67.5721 9.356 67.5721 10.316V14H65.8201V13.196C65.4681 13.796 64.8121 14.096 63.8521 14.096C63.3561 14.096 62.9241 14.012 62.5561 13.844C62.1961 13.676 61.9201 13.444 61.7281 13.148C61.5361 12.852 61.4401 12.516 61.4401 12.14C61.4401 11.54 61.6641 11.068 62.1121 10.724C62.5681 10.38 63.2681 10.208 64.2121 10.208H65.7001C65.7001 9.8 65.5761 9.488 65.3281 9.272C65.0801 9.048 64.7081 8.936 64.2121 8.936C63.8681 8.936 63.5281 8.992 63.1921 9.104C62.8641 9.208 62.5841 9.352 62.3521 9.536L61.6801 8.228C62.0321 7.98 62.4521 7.788 62.9401 7.652C63.4361 7.516 63.9441 7.448 64.4641 7.448ZM64.3201 12.836C64.6401 12.836 64.9241 12.764 65.1721 12.62C65.4201 12.468 65.5961 12.248 65.7001 11.96V11.3H64.4161C63.6481 11.3 63.2641 11.552 63.2641 12.056C63.2641 12.296 63.3561 12.488 63.5401 12.632C63.7321 12.768 63.9921 12.836 64.3201 12.836ZM71.0543 8.396C71.2783 8.084 71.5783 7.848 71.9543 7.688C72.3383 7.528 72.7783 7.448 73.2743 7.448V9.176C73.0663 9.16 72.9263 9.152 72.8543 9.152C72.3183 9.152 71.8983 9.304 71.5943 9.608C71.2903 9.904 71.1383 10.352 71.1383 10.952V14H69.2663V7.544H71.0543V8.396ZM80.9383 7.544V14H79.1623V13.232C78.9143 13.512 78.6183 13.728 78.2743 13.88C77.9303 14.024 77.5583 14.096 77.1583 14.096C76.3103 14.096 75.6383 13.852 75.1423 13.364C74.6463 12.876 74.3983 12.152 74.3983 11.192V7.544H76.2703V10.916C76.2703 11.956 76.7063 12.476 77.5783 12.476C78.0263 12.476 78.3863 12.332 78.6583 12.044C78.9303 11.748 79.0663 11.312 79.0663 10.736V7.544H80.9383ZM85.2766 7.448C86.2766 7.448 87.0446 7.688 87.5806 8.168C88.1166 8.64 88.3846 9.356 88.3846 10.316V14H86.6326V13.196C86.2806 13.796 85.6246 14.096 84.6646 14.096C84.1686 14.096 83.7366 14.012 83.3686 13.844C83.0086 13.676 82.7326 13.444 82.5406 13.148C82.3486 12.852 82.2526 12.516 82.2526 12.14C82.2526 11.54 82.4766 11.068 82.9246 10.724C83.3806 10.38 84.0806 10.208 85.0246 10.208H86.5126C86.5126 9.8 86.3886 9.488 86.1406 9.272C85.8926 9.048 85.5206 8.936 85.0246 8.936C84.6806 8.936 84.3406 8.992 84.0046 9.104C83.6766 9.208 83.3966 9.352 83.1646 9.536L82.4926 8.228C82.8446 7.98 83.2646 7.788 83.7526 7.652C84.2486 7.516 84.7566 7.448 85.2766 7.448ZM85.1326 12.836C85.4526 12.836 85.7366 12.764 85.9846 12.62C86.2326 12.468 86.4086 12.248 86.5126 11.96V11.3H85.2286C84.4606 11.3 84.0766 11.552 84.0766 12.056C84.0766 12.296 84.1686 12.488 84.3526 12.632C84.5446 12.768 84.8046 12.836 85.1326 12.836ZM94.0028 7.448C94.8028 7.448 95.4468 7.688 95.9348 8.168C96.4308 8.648 96.6788 9.36 96.6788 10.304V14H94.8068V10.592C94.8068 10.08 94.6948 9.7 94.4708 9.452C94.2468 9.196 93.9228 9.068 93.4988 9.068C93.0268 9.068 92.6508 9.216 92.3708 9.512C92.0908 9.8 91.9508 10.232 91.9508 10.808V14H90.0788V7.544H91.8668V8.3C92.1148 8.028 92.4228 7.82 92.7908 7.676C93.1588 7.524 93.5628 7.448 94.0028 7.448Z" fill="#94D2C3"/>
<path d="M10.0547 8.47266H7.94532C7.65352 8.47266 7.41798 8.7082 7.41798 9V13.7461H6.36329C6.1629 13.7461 5.98008 13.8586 5.89219 14.0379C5.8043 14.2172 5.82188 14.4316 5.94141 14.5898L8.57813 17.7891C8.67657 17.9227 8.83477 18 9.00001 18C9.16524 18 9.32344 17.9227 9.42188 17.7891L12.0586 14.5898C12.1781 14.4316 12.1992 14.2172 12.1078 14.0379C12.0199 13.8586 11.8371 13.7461 11.6367 13.7461H10.582V9C10.582 8.7082 10.3465 8.47266 10.0547 8.47266Z" fill="#86C6C2"/>
<path d="M14.748 5.30859C14.5301 4.24687 13.6688 3.41719 12.5543 3.23789C12.0902 1.38516 10.4062 0 8.47266 0C6.54258 0 4.87617 1.36406 4.40508 3.20273C4.35586 3.19922 4.30664 3.19922 4.25391 3.19922C1.92656 3.19922 0 5.09063 0 7.41797C0 9.74531 1.92656 11.6367 4.25391 11.6367H6.36328V9C6.36328 8.12813 7.07344 7.41797 7.94531 7.41797H10.0547C10.9266 7.41797 11.6367 8.12813 11.6367 9V11.6367H14.8008C16.5445 11.6367 18 10.2164 18 8.47266C18 6.71133 16.5199 5.26641 14.748 5.30859Z" fill="#86C6C2"/>
</svg>
