<svg width="114" height="21" viewBox="0 0 114 21" fill="none" xmlns="http://www.w3.org/2000/svg">
<path d="M26.736 8.184H24.048V6.6H31.368V8.184H28.68V15H26.736V8.184ZM32.1413 8.544H34.0133V15H32.1413V8.544ZM33.0773 7.644C32.7333 7.644 32.4533 7.544 32.2373 7.344C32.0213 7.144 31.9133 6.896 31.9133 6.6C31.9133 6.304 32.0213 6.056 32.2373 5.856C32.4533 5.656 32.7333 5.556 33.0773 5.556C33.4213 5.556 33.7013 5.652 33.9173 5.844C34.1333 6.036 34.2413 6.276 34.2413 6.564C34.2413 6.876 34.1333 7.136 33.9173 7.344C33.7013 7.544 33.4213 7.644 33.0773 7.644ZM44.0187 8.448C44.8267 8.448 45.4667 8.688 45.9387 9.168C46.4187 9.64 46.6587 10.352 46.6587 11.304V15H44.7867V11.592C44.7867 11.08 44.6787 10.7 44.4627 10.452C44.2547 10.196 43.9547 10.068 43.5627 10.068C43.1227 10.068 42.7747 10.212 42.5187 10.5C42.2627 10.78 42.1347 11.2 42.1347 11.76V15H40.2627V11.592C40.2627 10.576 39.8547 10.068 39.0387 10.068C38.6067 10.068 38.2627 10.212 38.0067 10.5C37.7507 10.78 37.6227 11.2 37.6227 11.76V15H35.7507V8.544H37.5387V9.288C37.7787 9.016 38.0707 8.808 38.4147 8.664C38.7667 8.52 39.1507 8.448 39.5667 8.448C40.0227 8.448 40.4347 8.54 40.8027 8.724C41.1707 8.9 41.4667 9.16 41.6907 9.504C41.9547 9.168 42.2867 8.908 42.6867 8.724C43.0947 8.54 43.5387 8.448 44.0187 8.448ZM55.5031 6.6C56.2471 6.6 56.8911 6.724 57.4351 6.972C57.9871 7.22 58.4111 7.572 58.7071 8.028C59.0031 8.484 59.1511 9.024 59.1511 9.648C59.1511 10.264 59.0031 10.804 58.7071 11.268C58.4111 11.724 57.9871 12.076 57.4351 12.324C56.8911 12.564 56.2471 12.684 55.5031 12.684H53.8111V15H51.8671V6.6H55.5031ZM55.3951 11.1C55.9791 11.1 56.4231 10.976 56.7271 10.728C57.0311 10.472 57.1831 10.112 57.1831 9.648C57.1831 9.176 57.0311 8.816 56.7271 8.568C56.4231 8.312 55.9791 8.184 55.3951 8.184H53.8111V11.1H55.3951ZM66.7193 11.796C66.7193 11.82 66.7073 11.988 66.6833 12.3H61.7993C61.8873 12.7 62.0953 13.016 62.4233 13.248C62.7513 13.48 63.1593 13.596 63.6473 13.596C63.9833 13.596 64.2793 13.548 64.5353 13.452C64.7993 13.348 65.0433 13.188 65.2673 12.972L66.2633 14.052C65.6553 14.748 64.7673 15.096 63.5993 15.096C62.8713 15.096 62.2273 14.956 61.6673 14.676C61.1073 14.388 60.6753 13.992 60.3713 13.488C60.0673 12.984 59.9153 12.412 59.9153 11.772C59.9153 11.14 60.0633 10.572 60.3593 10.068C60.6633 9.556 61.0753 9.16 61.5953 8.88C62.1233 8.592 62.7113 8.448 63.3593 8.448C63.9913 8.448 64.5633 8.584 65.0753 8.856C65.5873 9.128 65.9873 9.52 66.2753 10.032C66.5713 10.536 66.7193 11.124 66.7193 11.796ZM63.3713 9.864C62.9473 9.864 62.5913 9.984 62.3033 10.224C62.0153 10.464 61.8393 10.792 61.7753 11.208H64.9553C64.8913 10.8 64.7153 10.476 64.4273 10.236C64.1393 9.988 63.7873 9.864 63.3713 9.864ZM71.8896 8.448C72.6896 8.448 73.3336 8.688 73.8216 9.168C74.3176 9.648 74.5656 10.36 74.5656 11.304V15H72.6936V11.592C72.6936 11.08 72.5816 10.7 72.3576 10.452C72.1336 10.196 71.8096 10.068 71.3856 10.068C70.9136 10.068 70.5376 10.216 70.2576 10.512C69.9776 10.8 69.8376 11.232 69.8376 11.808V15H67.9656V8.544H69.7536V9.3C70.0016 9.028 70.3096 8.82 70.6776 8.676C71.0456 8.524 71.4496 8.448 71.8896 8.448ZM82.5533 8.544L79.6373 15.396C79.3413 16.14 78.9733 16.664 78.5333 16.968C78.1013 17.272 77.5773 17.424 76.9613 17.424C76.6253 17.424 76.2933 17.372 75.9653 17.268C75.6373 17.164 75.3693 17.02 75.1612 16.836L75.8453 15.504C75.9893 15.632 76.1533 15.732 76.3373 15.804C76.5293 15.876 76.7173 15.912 76.9013 15.912C77.1573 15.912 77.3653 15.848 77.5253 15.72C77.6853 15.6 77.8293 15.396 77.9573 15.108L77.9813 15.048L75.1852 8.544H77.1173L78.9293 12.924L80.7533 8.544H82.5533ZM89.8211 8.544V15H88.0451V14.232C87.7971 14.512 87.5011 14.728 87.1571 14.88C86.8131 15.024 86.4411 15.096 86.0411 15.096C85.1931 15.096 84.5211 14.852 84.0251 14.364C83.5291 13.876 83.2811 13.152 83.2811 12.192V8.544H85.1531V11.916C85.1531 12.956 85.5891 13.476 86.4611 13.476C86.9091 13.476 87.2691 13.332 87.5411 13.044C87.8131 12.748 87.9491 12.312 87.9491 11.736V8.544H89.8211ZM93.7274 15.096C93.1914 15.096 92.6674 15.032 92.1554 14.904C91.6434 14.768 91.2354 14.6 90.9314 14.4L91.5554 13.056C91.8434 13.24 92.1914 13.392 92.5994 13.512C93.0074 13.624 93.4074 13.68 93.7994 13.68C94.5914 13.68 94.9874 13.484 94.9874 13.092C94.9874 12.908 94.8794 12.776 94.6634 12.696C94.4474 12.616 94.1154 12.548 93.6674 12.492C93.1394 12.412 92.7034 12.32 92.3594 12.216C92.0154 12.112 91.7154 11.928 91.4594 11.664C91.2114 11.4 91.0874 11.024 91.0874 10.536C91.0874 10.128 91.2034 9.768 91.4354 9.456C91.6754 9.136 92.0194 8.888 92.4674 8.712C92.9234 8.536 93.4594 8.448 94.0754 8.448C94.5314 8.448 94.9834 8.5 95.4314 8.604C95.8874 8.7 96.2634 8.836 96.5594 9.012L95.9354 10.344C95.3674 10.024 94.7474 9.864 94.0754 9.864C93.6754 9.864 93.3754 9.92 93.1754 10.032C92.9754 10.144 92.8754 10.288 92.8754 10.464C92.8754 10.664 92.9834 10.804 93.1994 10.884C93.4154 10.964 93.7594 11.04 94.2314 11.112C94.7594 11.2 95.1914 11.296 95.5274 11.4C95.8634 11.496 96.1554 11.676 96.4034 11.94C96.6514 12.204 96.7754 12.572 96.7754 13.044C96.7754 13.444 96.6554 13.8 96.4154 14.112C96.1754 14.424 95.8234 14.668 95.3594 14.844C94.9034 15.012 94.3594 15.096 93.7274 15.096ZM104.434 8.544V15H102.658V14.232C102.41 14.512 102.114 14.728 101.77 14.88C101.426 15.024 101.054 15.096 100.654 15.096C99.8064 15.096 99.1344 14.852 98.6384 14.364C98.1424 13.876 97.8944 13.152 97.8944 12.192V8.544H99.7664V11.916C99.7664 12.956 100.202 13.476 101.074 13.476C101.522 13.476 101.882 13.332 102.154 13.044C102.426 12.748 102.562 12.312 102.562 11.736V8.544H104.434ZM110.093 8.448C110.893 8.448 111.537 8.688 112.025 9.168C112.521 9.648 112.769 10.36 112.769 11.304V15H110.897V11.592C110.897 11.08 110.785 10.7 110.561 10.452C110.337 10.196 110.013 10.068 109.589 10.068C109.117 10.068 108.741 10.216 108.461 10.512C108.181 10.8 108.041 11.232 108.041 11.808V15H106.169V8.544H107.957V9.3C108.205 9.028 108.513 8.82 108.881 8.676C109.249 8.524 109.653 8.448 110.093 8.448Z" fill="#94D2C3"/>
<path d="M3.69141 7.46484C2.33379 7.46484 1.23047 6.36152 1.23047 5.00391C1.23047 3.64629 2.33379 2.54297 3.69141 2.54297C5.04902 2.54297 6.15234 3.64629 6.15234 5.00391C6.15234 6.36152 5.04902 7.46484 3.69141 7.46484Z" fill="#86C6C2"/>
<path d="M17.3086 7.46484C15.951 7.46484 14.8477 6.36152 14.8477 5.00391C14.8477 3.64629 15.951 2.54297 17.3086 2.54297C18.6662 2.54297 19.7695 3.64629 19.7695 5.00391C19.7695 6.36152 18.6662 7.46484 17.3086 7.46484Z" fill="#86C6C2"/>
<path d="M10.5 6.15234C8.80195 6.15234 7.42383 4.77422 7.42383 3.07617C7.42383 1.37812 8.80195 0 10.5 0C12.198 0 13.5762 1.37812 13.5762 3.07617C13.5762 4.77422 12.198 6.15234 10.5 6.15234Z" fill="#86C6C2"/>
<path d="M11.1152 6.21387V10.459C11.1152 10.7994 10.8404 11.0742 10.5 11.0742C10.1596 11.0742 9.88477 10.7994 9.88477 10.459V6.21387C7.80117 6.51738 6.19336 8.29336 6.19336 10.459V14.1504C6.19336 14.4908 6.46816 14.7656 6.80859 14.7656H8.18672L8.6584 20.4381C8.68301 20.758 8.94961 21 9.26953 21H11.7305C12.0504 21 12.317 20.7539 12.3416 20.4381L12.8133 14.7656H14.1914C14.5318 14.7656 14.8066 14.4908 14.8066 14.1504V10.459C14.8066 8.29336 13.1988 6.51738 11.1152 6.21387Z" fill="#86C6C2"/>
<path d="M4.92188 14.2324V10.541C4.92188 9.61816 5.17207 8.76094 5.56992 7.99805C5.01621 7.66992 4.38047 7.46484 3.69141 7.46484C1.65703 7.46484 0 9.12188 0 11.1562V14.2324C0 14.5729 0.274805 14.8477 0.615234 14.8477H1.28789L1.8498 20.4463C1.88262 20.7621 2.14512 21 2.46094 21H4.92188C5.2377 21 5.5043 20.7621 5.53301 20.4463L5.98828 15.9018C5.36074 15.6064 4.92188 14.9707 4.92188 14.2324Z" fill="#86C6C2"/>
<path d="M21 11.1562C21 9.12188 19.343 7.46484 17.3086 7.46484C16.6195 7.46484 15.9838 7.66582 15.4301 7.99805C15.832 8.76504 16.0781 9.62227 16.0781 10.541V14.2324C16.0781 14.9707 15.6393 15.6064 15.0117 15.9018L15.467 20.4463C15.4998 20.7621 15.7623 21 16.0781 21H18.5391C18.8549 21 19.1215 20.7621 19.1502 20.4463L19.7121 14.8477H20.3848C20.7252 14.8477 21 14.5729 21 14.2324V11.1562Z" fill="#86C6C2"/>
</svg>
