<svg width="97" height="24" viewBox="0 0 97 24" fill="none" xmlns="http://www.w3.org/2000/svg">
<path d="M26.736 9.184H24.048V7.6H31.368V9.184H28.68V16H26.736V9.184ZM32.1413 9.544H34.0133V16H32.1413V9.544ZM33.0773 8.644C32.7333 8.644 32.4533 8.544 32.2373 8.344C32.0213 8.144 31.9133 7.896 31.9133 7.6C31.9133 7.304 32.0213 7.056 32.2373 6.856C32.4533 6.656 32.7333 6.556 33.0773 6.556C33.4213 6.556 33.7013 6.652 33.9173 6.844C34.1333 7.036 34.2413 7.276 34.2413 7.564C34.2413 7.876 34.1333 8.136 33.9173 8.344C33.7013 8.544 33.4213 8.644 33.0773 8.644ZM39.5667 9.448C40.1667 9.448 40.7107 9.588 41.1987 9.868C41.6947 10.14 42.0827 10.528 42.3627 11.032C42.6427 11.528 42.7827 12.108 42.7827 12.772C42.7827 13.436 42.6427 14.02 42.3627 14.524C42.0827 15.02 41.6947 15.408 41.1987 15.688C40.7107 15.96 40.1667 16.096 39.5667 16.096C38.7427 16.096 38.0947 15.836 37.6227 15.316V18.328H35.7507V9.544H37.5387V10.288C38.0027 9.728 38.6787 9.448 39.5667 9.448ZM39.2427 14.56C39.7227 14.56 40.1147 14.4 40.4187 14.08C40.7307 13.752 40.8867 13.316 40.8867 12.772C40.8867 12.228 40.7307 11.796 40.4187 11.476C40.1147 11.148 39.7227 10.984 39.2427 10.984C38.7627 10.984 38.3667 11.148 38.0547 11.476C37.7507 11.796 37.5987 12.228 37.5987 12.772C37.5987 13.316 37.7507 13.752 38.0547 14.08C38.3667 14.4 38.7627 14.56 39.2427 14.56ZM46.2079 16.096C45.6719 16.096 45.1479 16.032 44.6359 15.904C44.1239 15.768 43.7159 15.6 43.4119 15.4L44.0359 14.056C44.3239 14.24 44.6719 14.392 45.0799 14.512C45.4879 14.624 45.8879 14.68 46.2799 14.68C47.0719 14.68 47.4679 14.484 47.4679 14.092C47.4679 13.908 47.3599 13.776 47.1439 13.696C46.9279 13.616 46.5959 13.548 46.1479 13.492C45.6199 13.412 45.1839 13.32 44.8399 13.216C44.4959 13.112 44.1959 12.928 43.9399 12.664C43.6919 12.4 43.5679 12.024 43.5679 11.536C43.5679 11.128 43.6839 10.768 43.9159 10.456C44.1559 10.136 44.4999 9.888 44.9479 9.712C45.4039 9.536 45.9399 9.448 46.5559 9.448C47.0119 9.448 47.4639 9.5 47.9119 9.604C48.3679 9.7 48.7439 9.836 49.0399 10.012L48.4159 11.344C47.8479 11.024 47.2279 10.864 46.5559 10.864C46.1559 10.864 45.8559 10.92 45.6559 11.032C45.4559 11.144 45.3559 11.288 45.3559 11.464C45.3559 11.664 45.4639 11.804 45.6799 11.884C45.8959 11.964 46.2399 12.04 46.7119 12.112C47.2399 12.2 47.6719 12.296 48.0079 12.4C48.3439 12.496 48.6359 12.676 48.8839 12.94C49.1319 13.204 49.2559 13.572 49.2559 14.044C49.2559 14.444 49.1359 14.8 48.8959 15.112C48.6559 15.424 48.3039 15.668 47.8399 15.844C47.3839 16.012 46.8399 16.096 46.2079 16.096ZM60.3973 16.144L59.3893 15.208C58.5893 15.832 57.6533 16.144 56.5813 16.144C55.9733 16.144 55.4253 16.048 54.9373 15.856C54.4493 15.656 54.0653 15.38 53.7853 15.028C53.5133 14.676 53.3773 14.28 53.3773 13.84C53.3773 13.32 53.5213 12.864 53.8093 12.472C54.1053 12.072 54.5773 11.692 55.2253 11.332C54.9213 11.02 54.7013 10.724 54.5653 10.444C54.4293 10.156 54.3613 9.86 54.3613 9.556C54.3613 9.148 54.4693 8.788 54.6853 8.476C54.9013 8.164 55.2053 7.924 55.5973 7.756C55.9973 7.58 56.4573 7.492 56.9773 7.492C57.7053 7.492 58.2893 7.668 58.7293 8.02C59.1693 8.364 59.3893 8.832 59.3893 9.424C59.3893 9.856 59.2573 10.24 58.9933 10.576C58.7373 10.912 58.3213 11.236 57.7453 11.548L59.2813 12.976C59.4653 12.592 59.6053 12.156 59.7013 11.668L61.2013 12.136C61.0413 12.88 60.7853 13.516 60.4333 14.044L61.4173 14.956L60.3973 16.144ZM56.9773 8.764C56.6973 8.764 56.4733 8.836 56.3053 8.98C56.1453 9.124 56.0653 9.308 56.0653 9.532C56.0653 9.7 56.1093 9.86 56.1973 10.012C56.2853 10.156 56.4573 10.352 56.7133 10.6C57.1213 10.384 57.4053 10.192 57.5653 10.024C57.7253 9.848 57.8053 9.66 57.8053 9.46C57.8053 9.252 57.7333 9.084 57.5893 8.956C57.4453 8.828 57.2413 8.764 56.9773 8.764ZM56.7133 14.68C57.2973 14.68 57.8213 14.516 58.2853 14.188L56.2573 12.292C55.8813 12.508 55.6133 12.72 55.4533 12.928C55.2933 13.136 55.2133 13.372 55.2133 13.636C55.2133 13.948 55.3493 14.2 55.6213 14.392C55.8933 14.584 56.2573 14.68 56.7133 14.68ZM67.8102 9.184H65.1222V7.6H72.4422V9.184H69.7542V16H67.8102V9.184ZM75.0036 10.396C75.2276 10.084 75.5276 9.848 75.9036 9.688C76.2876 9.528 76.7276 9.448 77.2236 9.448V11.176C77.0156 11.16 76.8756 11.152 76.8036 11.152C76.2676 11.152 75.8476 11.304 75.5436 11.608C75.2396 11.904 75.0876 12.352 75.0876 12.952V16H73.2156V9.544H75.0036V10.396ZM78.3367 9.544H80.2087V16H78.3367V9.544ZM79.2727 8.644C78.9287 8.644 78.6487 8.544 78.4327 8.344C78.2167 8.144 78.1087 7.896 78.1087 7.6C78.1087 7.304 78.2167 7.056 78.4327 6.856C78.6487 6.656 78.9287 6.556 79.2727 6.556C79.6167 6.556 79.8967 6.652 80.1127 6.844C80.3287 7.036 80.4367 7.276 80.4367 7.564C80.4367 7.876 80.3287 8.136 80.1127 8.344C79.8967 8.544 79.6167 8.644 79.2727 8.644ZM85.066 16.096C84.378 16.096 83.758 15.956 83.206 15.676C82.662 15.388 82.234 14.992 81.922 14.488C81.618 13.984 81.466 13.412 81.466 12.772C81.466 12.132 81.618 11.56 81.922 11.056C82.234 10.552 82.662 10.16 83.206 9.88C83.758 9.592 84.378 9.448 85.066 9.448C85.746 9.448 86.338 9.592 86.842 9.88C87.354 10.16 87.726 10.564 87.958 11.092L86.506 11.872C86.17 11.28 85.686 10.984 85.054 10.984C84.566 10.984 84.162 11.144 83.842 11.464C83.522 11.784 83.362 12.22 83.362 12.772C83.362 13.324 83.522 13.76 83.842 14.08C84.162 14.4 84.566 14.56 85.054 14.56C85.694 14.56 86.178 14.264 86.506 13.672L87.958 14.464C87.726 14.976 87.354 15.376 86.842 15.664C86.338 15.952 85.746 16.096 85.066 16.096ZM91.761 13.468L90.861 14.356V16H88.989V7.096H90.861V12.136L93.597 9.544H95.829L93.141 12.28L96.069 16H93.801L91.761 13.468Z" fill="#94D2C3"/>
<path d="M12.6317 17.84H3.71668V17.0967C3.70275 15.8981 3.21495 14.7506 2.3555 13.9144C-0.812837 10.7043 -0.780318 5.53828 2.42519 2.36529C5.6307 -0.807693 10.7967 -0.784465 13.9743 2.41175C17.1519 5.60797 17.1426 10.7786 13.9511 13.9609C13.1056 14.7878 12.6317 15.9213 12.6317 17.0967V17.84Z" fill="#86C6C2"/>
<path d="M4.45998 19.3266H11.893C12.3019 19.3266 12.6363 19.6611 12.6363 20.0699C12.6363 20.4787 12.3019 20.8132 11.893 20.8132H4.45998C4.05116 20.8132 3.71667 20.4787 3.71667 20.0699C3.71667 19.6611 4.05116 19.3266 4.45998 19.3266Z" fill="#86C6C2"/>
<path d="M5.94661 22.2998H10.4064C10.8153 22.2998 11.1498 22.6343 11.1498 23.0431C11.1498 23.4519 10.8153 23.7864 10.4064 23.7864H5.94661C5.5378 23.7864 5.20331 23.4519 5.20331 23.0431C5.20331 22.6343 5.5378 22.2998 5.94661 22.2998Z" fill="#86C6C2"/>
<path d="M11.8884 7.43835H13.375V8.92497H11.8884V7.43835Z" fill="white"/>
<path d="M2.97339 7.43835H4.46V8.92497H2.97339V7.43835Z" fill="white"/>
<path d="M5.94659 8.92497H7.43321V17.84H8.91982V8.92497H10.4064V7.43835H5.94659V8.92497Z" fill="white"/>
</svg>
