<svg width="99" height="17" viewBox="0 0 99 17" fill="none" xmlns="http://www.w3.org/2000/svg">
<path d="M29.064 12.144C28.192 12.144 27.404 11.956 26.7 11.58C26.004 11.204 25.456 10.688 25.056 10.032C24.664 9.368 24.468 8.624 24.468 7.8C24.468 6.976 24.664 6.236 25.056 5.58C25.456 4.916 26.004 4.396 26.7 4.02C27.404 3.644 28.192 3.456 29.064 3.456C29.936 3.456 30.72 3.644 31.416 4.02C32.112 4.396 32.66 4.916 33.06 5.58C33.46 6.236 33.66 6.976 33.66 7.8C33.66 8.624 33.46 9.368 33.06 10.032C32.66 10.688 32.112 11.204 31.416 11.58C30.72 11.956 29.936 12.144 29.064 12.144ZM29.064 10.488C29.56 10.488 30.008 10.376 30.408 10.152C30.808 9.92 31.12 9.6 31.344 9.192C31.576 8.784 31.692 8.32 31.692 7.8C31.692 7.28 31.576 6.816 31.344 6.408C31.12 6 30.808 5.684 30.408 5.46C30.008 5.228 29.56 5.112 29.064 5.112C28.568 5.112 28.12 5.228 27.72 5.46C27.32 5.684 27.004 6 26.772 6.408C26.548 6.816 26.436 7.28 26.436 7.8C26.436 8.32 26.548 8.784 26.772 9.192C27.004 9.6 27.32 9.92 27.72 10.152C28.12 10.376 28.568 10.488 29.064 10.488ZM37.041 5.688H38.697V7.128H37.089V12H35.217V7.128H34.221V5.688H35.217V5.4C35.217 4.664 35.433 4.08 35.865 3.648C36.305 3.216 36.921 3 37.713 3C37.993 3 38.257 3.032 38.505 3.096C38.761 3.152 38.973 3.236 39.141 3.348L38.649 4.704C38.433 4.552 38.181 4.476 37.893 4.476C37.325 4.476 37.041 4.788 37.041 5.412V5.688ZM41.6816 5.688H43.3376V7.128H41.7296V12H39.8576V7.128H38.8616V5.688H39.8576V5.4C39.8576 4.664 40.0736 4.08 40.5056 3.648C40.9456 3.216 41.5616 3 42.3536 3C42.6336 3 42.8976 3.032 43.1456 3.096C43.4016 3.152 43.6136 3.236 43.7816 3.348L43.2896 4.704C43.0736 4.552 42.8216 4.476 42.5336 4.476C41.9656 4.476 41.6816 4.788 41.6816 5.412V5.688ZM45.2336 5.544H47.1056V12H45.2336V5.544ZM46.1696 4.644C45.8256 4.644 45.5456 4.544 45.3296 4.344C45.1136 4.144 45.0056 3.896 45.0056 3.6C45.0056 3.304 45.1136 3.056 45.3296 2.856C45.5456 2.656 45.8256 2.556 46.1696 2.556C46.5136 2.556 46.7936 2.652 47.0096 2.844C47.2256 3.036 47.3336 3.276 47.3336 3.564C47.3336 3.876 47.2256 4.136 47.0096 4.344C46.7936 4.544 46.5136 4.644 46.1696 4.644ZM51.9606 12.096C51.2726 12.096 50.6526 11.956 50.1006 11.676C49.5566 11.388 49.1286 10.992 48.8166 10.488C48.5126 9.984 48.3606 9.412 48.3606 8.772C48.3606 8.132 48.5126 7.56 48.8166 7.056C49.1286 6.552 49.5566 6.16 50.1006 5.88C50.6526 5.592 51.2726 5.448 51.9606 5.448C52.6406 5.448 53.2326 5.592 53.7366 5.88C54.2486 6.16 54.6206 6.564 54.8526 7.092L53.4006 7.872C53.0646 7.28 52.5806 6.984 51.9486 6.984C51.4606 6.984 51.0566 7.144 50.7366 7.464C50.4166 7.784 50.2566 8.22 50.2566 8.772C50.2566 9.324 50.4166 9.76 50.7366 10.08C51.0566 10.4 51.4606 10.56 51.9486 10.56C52.5886 10.56 53.0726 10.264 53.4006 9.672L54.8526 10.464C54.6206 10.976 54.2486 11.376 53.7366 11.664C53.2326 11.952 52.6406 12.096 51.9606 12.096ZM58.5344 5.448C59.5344 5.448 60.3024 5.688 60.8384 6.168C61.3744 6.64 61.6424 7.356 61.6424 8.316V12H59.8904V11.196C59.5384 11.796 58.8824 12.096 57.9224 12.096C57.4264 12.096 56.9944 12.012 56.6264 11.844C56.2664 11.676 55.9904 11.444 55.7984 11.148C55.6064 10.852 55.5104 10.516 55.5104 10.14C55.5104 9.54 55.7344 9.068 56.1824 8.724C56.6384 8.38 57.3384 8.208 58.2824 8.208H59.7704C59.7704 7.8 59.6464 7.488 59.3984 7.272C59.1504 7.048 58.7784 6.936 58.2824 6.936C57.9384 6.936 57.5984 6.992 57.2624 7.104C56.9344 7.208 56.6544 7.352 56.4224 7.536L55.7504 6.228C56.1024 5.98 56.5224 5.788 57.0104 5.652C57.5064 5.516 58.0144 5.448 58.5344 5.448ZM58.3904 10.836C58.7104 10.836 58.9944 10.764 59.2424 10.62C59.4904 10.468 59.6664 10.248 59.7704 9.96V9.3H58.4864C57.7184 9.3 57.3344 9.552 57.3344 10.056C57.3344 10.296 57.4264 10.488 57.6104 10.632C57.8024 10.768 58.0624 10.836 58.3904 10.836ZM63.3367 3.096H65.2087V12H63.3367V3.096ZM83.1725 3.6L80.4245 12H78.3365L76.4885 6.312L74.5805 12H72.5045L69.7445 3.6H71.7605L73.6565 9.504L75.6365 3.6H77.4365L79.3565 9.552L81.3125 3.6H83.1725ZM89.9693 8.796C89.9693 8.82 89.9573 8.988 89.9333 9.3H85.0493C85.1373 9.7 85.3453 10.016 85.6733 10.248C86.0013 10.48 86.4093 10.596 86.8973 10.596C87.2333 10.596 87.5293 10.548 87.7853 10.452C88.0493 10.348 88.2933 10.188 88.5173 9.972L89.5133 11.052C88.9053 11.748 88.0173 12.096 86.8493 12.096C86.1213 12.096 85.4773 11.956 84.9173 11.676C84.3573 11.388 83.9253 10.992 83.6213 10.488C83.3173 9.984 83.1653 9.412 83.1653 8.772C83.1653 8.14 83.3133 7.572 83.6093 7.068C83.9133 6.556 84.3253 6.16 84.8453 5.88C85.3733 5.592 85.9613 5.448 86.6093 5.448C87.2413 5.448 87.8133 5.584 88.3253 5.856C88.8373 6.128 89.2373 6.52 89.5253 7.032C89.8213 7.536 89.9693 8.124 89.9693 8.796ZM86.6213 6.864C86.1973 6.864 85.8413 6.984 85.5533 7.224C85.2653 7.464 85.0893 7.792 85.0253 8.208H88.2053C88.1413 7.8 87.9653 7.476 87.6773 7.236C87.3893 6.988 87.0373 6.864 86.6213 6.864ZM95.0316 5.448C95.6316 5.448 96.1756 5.588 96.6636 5.868C97.1596 6.14 97.5476 6.528 97.8276 7.032C98.1076 7.528 98.2476 8.108 98.2476 8.772C98.2476 9.436 98.1076 10.02 97.8276 10.524C97.5476 11.02 97.1596 11.408 96.6636 11.688C96.1756 11.96 95.6316 12.096 95.0316 12.096C94.1436 12.096 93.4676 11.816 93.0036 11.256V12H91.2156V3.096H93.0876V6.228C93.5596 5.708 94.2076 5.448 95.0316 5.448ZM94.7076 10.56C95.1876 10.56 95.5796 10.4 95.8836 10.08C96.1956 9.752 96.3516 9.316 96.3516 8.772C96.3516 8.228 96.1956 7.796 95.8836 7.476C95.5796 7.148 95.1876 6.984 94.7076 6.984C94.2276 6.984 93.8316 7.148 93.5196 7.476C93.2156 7.796 93.0636 8.228 93.0636 8.772C93.0636 9.316 93.2156 9.752 93.5196 10.08C93.8316 10.4 94.2276 10.56 94.7076 10.56Z" fill="#94D2C3"/>
<path d="M8.80426 16.9657C10.1049 16.7794 11.2421 15.4255 11.9609 13.4212C10.9226 13.1892 9.86533 13.0637 8.80426 13.0485V16.9657Z" fill="#86C6C2"/>
<path d="M10.8808 16.6501C10.9568 16.6273 11.0329 16.6045 11.109 16.5817C11.1736 16.5626 11.2345 16.5398 11.2991 16.517C11.3752 16.4904 11.4474 16.4638 11.5235 16.4371C11.5882 16.4143 11.649 16.3877 11.7137 16.3611C11.7859 16.3307 11.8582 16.3002 11.9304 16.2698C11.9913 16.2432 12.056 16.2128 12.1168 16.1861C12.1853 16.1519 12.2575 16.1177 12.326 16.0835C12.3868 16.053 12.4477 16.0226 12.5085 15.9884C12.577 15.9503 12.6454 15.9161 12.7101 15.8781C12.7709 15.8439 12.828 15.8096 12.8888 15.7716C12.9535 15.7298 13.0219 15.6917 13.0866 15.6499C13.1436 15.6119 13.2045 15.5738 13.2615 15.5358C13.3262 15.494 13.387 15.4483 13.4517 15.4027C13.5087 15.3609 13.5658 15.3228 13.619 15.281C13.6799 15.2354 13.7407 15.1859 13.8016 15.1365C13.8548 15.0946 13.9081 15.049 13.9613 15.0072C14.0222 14.9577 14.0792 14.9045 14.1401 14.8512C14.1933 14.8056 14.2428 14.76 14.2922 14.7143C14.3492 14.6611 14.4063 14.604 14.4633 14.547C14.5128 14.4975 14.5622 14.4519 14.6117 14.4025C14.6193 14.3949 14.6307 14.3835 14.6383 14.372C13.9765 14.0298 13.2768 13.7597 12.558 13.5696C12.1815 14.7638 11.5159 15.8477 10.6146 16.7224C10.6374 16.7148 10.664 16.711 10.6868 16.7034C10.7553 16.6881 10.8161 16.6691 10.8808 16.6501Z" fill="#86C6C2"/>
<path d="M17 8.78906H13.3566C13.3414 10.2114 13.136 11.6262 12.7443 12.9915C13.5468 13.2045 14.3188 13.5126 15.049 13.9081C16.247 12.4629 16.9354 10.664 17 8.78906Z" fill="#86C6C2"/>
<path d="M8.80426 8.18054H12.7481C12.7329 6.80761 12.5313 5.44609 12.151 4.1264C11.0519 4.37741 9.92999 4.51052 8.80426 4.52573V8.18054Z" fill="#86C6C2"/>
<path d="M8.80426 0V3.91723C9.86533 3.90201 10.9226 3.77651 11.9609 3.54452C11.2421 1.54407 10.1049 0.186353 8.80426 0Z" fill="#86C6C2"/>
<path d="M8.80426 12.4439C9.92999 12.4591 11.0519 12.5922 12.151 12.8432C12.5313 11.5235 12.7329 10.162 12.7481 8.78906H8.80426V12.4439Z" fill="#86C6C2"/>
<path d="M15.049 3.05774C14.3188 3.45327 13.5468 3.76132 12.7443 3.97429C13.136 5.33962 13.3452 6.75438 13.3566 8.17676H17C16.9354 6.30561 16.247 4.50293 15.049 3.05774Z" fill="#86C6C2"/>
<path d="M14.6383 2.59753C14.6307 2.58992 14.6193 2.57851 14.6117 2.57091C14.5622 2.52147 14.5128 2.47202 14.4633 2.42639C14.4063 2.36934 14.3492 2.3161 14.2922 2.25905C14.2428 2.21341 14.1895 2.16777 14.1401 2.12214C14.083 2.06889 14.0222 2.01565 13.9613 1.96621C13.9081 1.92057 13.8548 1.87874 13.8016 1.8369C13.7407 1.78746 13.6799 1.73802 13.6152 1.69238C13.562 1.65055 13.5049 1.61252 13.4479 1.57068C13.3832 1.52505 13.3224 1.47941 13.2577 1.43757C13.2007 1.39954 13.1436 1.36151 13.0866 1.32348C13.0219 1.28164 12.9535 1.23981 12.8888 1.19798C12.8318 1.16375 12.7709 1.12952 12.7101 1.09529C12.6416 1.05726 12.5732 1.01923 12.5047 0.981197C12.4439 0.950772 12.383 0.916544 12.3222 0.886119C12.2537 0.85189 12.1815 0.817662 12.1092 0.783434C12.0483 0.753009 11.9875 0.726387 11.9228 0.699765C11.8506 0.66934 11.7783 0.638915 11.7061 0.60849C11.6452 0.581868 11.5806 0.559049 11.5197 0.532427C11.4474 0.505805 11.3714 0.479183 11.2953 0.452562C11.2307 0.429743 11.1698 0.406924 11.1052 0.387908C11.0291 0.365089 10.953 0.342271 10.877 0.319452C10.8123 0.300436 10.7515 0.281421 10.6868 0.266208C10.664 0.258602 10.6374 0.254799 10.6146 0.247192C11.5121 1.12191 12.1815 2.20581 12.558 3.39999C13.2768 3.20983 13.9765 2.93981 14.6383 2.59753Z" fill="#86C6C2"/>
<path d="M0 8.18056H3.6434C3.65861 6.75819 3.86398 5.34342 4.25571 3.9781C3.45324 3.76132 2.68121 3.45327 1.95101 3.05774C0.75302 4.50293 0.0646533 6.30561 0 8.18056Z" fill="#86C6C2"/>
<path d="M8.19572 16.9657V13.0485C7.13465 13.0637 6.07738 13.1892 5.03912 13.4212C5.75792 15.4255 6.89505 16.7832 8.19572 16.9657Z" fill="#86C6C2"/>
<path d="M8.19574 8.78906H4.25189C4.2671 10.162 4.46867 11.5235 4.84898 12.8432C5.94809 12.5922 7.07001 12.4591 8.19574 12.4439V8.78906Z" fill="#86C6C2"/>
<path d="M8.19572 0C6.89505 0.186353 5.75411 1.54027 5.03912 3.54452C6.07738 3.77651 7.13465 3.90201 8.19572 3.91723V0Z" fill="#86C6C2"/>
<path d="M8.19574 4.52573C7.07001 4.51052 5.94809 4.37741 4.84898 4.1264C4.46867 5.44609 4.2671 6.80761 4.25189 8.18054H8.19574V4.52573Z" fill="#86C6C2"/>
<path d="M6.38545 0.247192C6.36263 0.254799 6.33601 0.258602 6.31319 0.266208C6.24854 0.285224 6.18389 0.304239 6.12303 0.319452C6.04697 0.342271 5.97091 0.365089 5.89485 0.387908C5.83019 0.410727 5.76554 0.429743 5.70469 0.452562C5.62863 0.479183 5.55637 0.505805 5.48411 0.532427C5.41946 0.555246 5.35861 0.581868 5.29395 0.60849C5.22169 0.638915 5.14943 0.66934 5.07717 0.699765C5.01632 0.726387 4.95167 0.756812 4.89082 0.783434C4.82236 0.817662 4.7501 0.85189 4.68165 0.886119C4.6208 0.916544 4.55995 0.950772 4.4991 0.981197C4.43064 1.01923 4.36218 1.05346 4.29753 1.09149C4.23668 1.12572 4.17583 1.15994 4.11878 1.19417C4.05413 1.2322 3.98567 1.27404 3.92102 1.31587C3.86397 1.3539 3.80312 1.39194 3.74608 1.42997C3.68142 1.4718 3.62057 1.51744 3.55592 1.56308C3.49887 1.60491 3.44183 1.64294 3.38858 1.68478C3.32773 1.73041 3.26688 1.77985 3.20603 1.8293C3.15279 1.87113 3.09574 1.91677 3.0463 1.9586C2.98545 2.00804 2.9284 2.06129 2.86755 2.11073C2.81431 2.15636 2.76487 2.202 2.71162 2.25144C2.65458 2.30469 2.59753 2.36173 2.54048 2.41498C2.49104 2.46442 2.4416 2.51006 2.39216 2.5595C2.38456 2.5671 2.37315 2.57851 2.36554 2.58992C3.02728 2.9322 3.72706 3.20223 4.44585 3.39238C4.81856 2.202 5.48411 1.11811 6.38545 0.247192Z" fill="#86C6C2"/>
<path d="M2.53286 14.5432C2.58991 14.6002 2.64695 14.6535 2.704 14.7105C2.75344 14.7562 2.80668 14.8018 2.85993 14.8475C2.91697 14.9007 2.97783 14.9539 3.03868 15.0034C3.09192 15.049 3.14516 15.0909 3.19841 15.1327C3.25926 15.1821 3.32011 15.2316 3.38476 15.2772C3.438 15.319 3.49505 15.3571 3.5521 15.3989C3.61675 15.4445 3.6814 15.4902 3.74606 15.532C3.8031 15.57 3.86015 15.6081 3.9172 15.6461C3.98185 15.6879 4.05031 15.7298 4.11496 15.7678C4.17201 15.802 4.23286 15.8363 4.29371 15.8705C4.36217 15.9085 4.43062 15.9466 4.49908 15.9846C4.55993 16.015 4.62078 16.0492 4.68163 16.0797C4.75008 16.1139 4.82234 16.1481 4.8946 16.1824C4.95545 16.2128 5.0163 16.2394 5.08096 16.266C5.15322 16.2964 5.22548 16.3269 5.29774 16.3573C5.35859 16.3839 5.42324 16.4067 5.48409 16.4334C5.55635 16.46 5.63241 16.4866 5.70847 16.5132C5.77313 16.536 5.83398 16.5589 5.89863 16.5779C5.97469 16.6007 6.05076 16.6235 6.12682 16.6463C6.19147 16.6653 6.25232 16.6844 6.31698 16.6996C6.33979 16.7072 6.36642 16.711 6.39304 16.7186C5.4955 15.8439 4.82615 14.76 4.44964 13.5658C3.72704 13.756 3.03107 14.026 2.36932 14.3683C2.37693 14.3759 2.38834 14.3873 2.39595 14.3949C2.43398 14.4481 2.48342 14.4938 2.53286 14.5432Z" fill="#86C6C2"/>
<path d="M1.95101 13.9081C2.68121 13.5126 3.45324 13.2045 4.25571 12.9915C3.86398 11.6262 3.65481 10.2114 3.6434 8.78906H0C0.0646533 10.664 0.75302 12.4629 1.95101 13.9081Z" fill="#86C6C2"/>
</svg>
